<?xml version="1.0" encoding="UTF-8"?>
<!--Generator: Apple Native CoreSVG 149-->
<!DOCTYPE svg
PUBLIC "-//W3C//DTD SVG 1.1//EN"
       "http://www.w3.org/Graphics/SVG/1.1/DTD/svg11.dtd">
<svg version="1.1" xmlns="http://www.w3.org/2000/svg" xmlns:xlink="http://www.w3.org/1999/xlink" width="3300" height="2200">
 <!--glyph: "uni100F32.medium", point size: 100.0, font version: "17.0d9e1", template writer version: "59"-->
 <g id="Notes">
  <rect height="2200" id="artboard" style="fill:white;opacity:1" width="3300" x="0" y="0"/>
  <line style="fill:none;stroke:black;opacity:1;stroke-width:0.5;" x1="263" x2="3036" y1="292" y2="292"/>
  <text style="stroke:none;fill:black;font-family:sans-serif;font-size:13;font-weight:bold;" transform="matrix(1 0 0 1 263 322)">Weight/Scale Variations</text>
  <text style="stroke:none;fill:black;font-family:sans-serif;font-size:13;text-anchor:middle;" transform="matrix(1 0 0 1 559.711 322)">Ultralight</text>
  <text style="stroke:none;fill:black;font-family:sans-serif;font-size:13;text-anchor:middle;" transform="matrix(1 0 0 1 856.422 322)">Thin</text>
  <text style="stroke:none;fill:black;font-family:sans-serif;font-size:13;text-anchor:middle;" transform="matrix(1 0 0 1 1153.13 322)">Light</text>
  <text style="stroke:none;fill:black;font-family:sans-serif;font-size:13;text-anchor:middle;" transform="matrix(1 0 0 1 1449.84 322)">Regular</text>
  <text style="stroke:none;fill:black;font-family:sans-serif;font-size:13;text-anchor:middle;" transform="matrix(1 0 0 1 1746.56 322)">Medium</text>
  <text style="stroke:none;fill:black;font-family:sans-serif;font-size:13;text-anchor:middle;" transform="matrix(1 0 0 1 2043.27 322)">Semibold</text>
  <text style="stroke:none;fill:black;font-family:sans-serif;font-size:13;text-anchor:middle;" transform="matrix(1 0 0 1 2339.98 322)">Bold</text>
  <text style="stroke:none;fill:black;font-family:sans-serif;font-size:13;text-anchor:middle;" transform="matrix(1 0 0 1 2636.69 322)">Heavy</text>
  <text style="stroke:none;fill:black;font-family:sans-serif;font-size:13;text-anchor:middle;" transform="matrix(1 0 0 1 2933.4 322)">Black</text>
  <line style="fill:none;stroke:black;opacity:1;stroke-width:0.5;" x1="263" x2="3036" y1="1903" y2="1903"/>
  <g transform="matrix(1 0 0 1 263 1933)">
   <path d="M9.24805 0.830078Q10.8691 0.830078 12.2949 0.214844Q13.7207-0.400391 14.8096-1.49414Q15.8984-2.58789 16.5186-4.01367Q17.1387-5.43945 17.1387-7.05078Q17.1387-8.66211 16.5186-10.0879Q15.8984-11.5137 14.8047-12.6074Q13.7109-13.7012 12.2852-14.3164Q10.8594-14.9316 9.23828-14.9316Q7.62695-14.9316 6.20117-14.3164Q4.77539-13.7012 3.69141-12.6074Q2.60742-11.5137 1.9873-10.0879Q1.36719-8.66211 1.36719-7.05078Q1.36719-5.43945 1.9873-4.01367Q2.60742-2.58789 3.69629-1.49414Q4.78516-0.400391 6.21094 0.214844Q7.63672 0.830078 9.24805 0.830078ZM9.24805-0.654297Q7.91992-0.654297 6.7627-1.14746Q5.60547-1.64062 4.73145-2.51953Q3.85742-3.39844 3.36426-4.56055Q2.87109-5.72266 2.87109-7.05078Q2.87109-8.37891 3.35938-9.54102Q3.84766-10.7031 4.72168-11.582Q5.5957-12.4609 6.75293-12.9541Q7.91016-13.4473 9.23828-13.4473Q10.5762-13.4473 11.7334-12.9541Q12.8906-12.4609 13.7695-11.582Q14.6484-10.7031 15.1465-9.54102Q15.6445-8.37891 15.6445-7.05078Q15.6445-5.72266 15.1514-4.56055Q14.6582-3.39844 13.7842-2.51953Q12.9102-1.64062 11.748-1.14746Q10.5859-0.654297 9.24805-0.654297ZM5.83984-7.04102Q5.83984-6.71875 6.04492-6.51855Q6.25-6.31836 6.5918-6.31836L8.50586-6.31836L8.50586-4.39453Q8.50586-4.0625 8.70605-3.85742Q8.90625-3.65234 9.22852-3.65234Q9.56055-3.65234 9.76562-3.85742Q9.9707-4.0625 9.9707-4.39453L9.9707-6.31836L11.8945-6.31836Q12.2266-6.31836 12.4316-6.51855Q12.6367-6.71875 12.6367-7.04102Q12.6367-7.37305 12.4316-7.57812Q12.2266-7.7832 11.8945-7.7832L9.9707-7.7832L9.9707-9.69727Q9.9707-10.0391 9.76562-10.2441Q9.56055-10.4492 9.22852-10.4492Q8.90625-10.4492 8.70605-10.2441Q8.50586-10.0391 8.50586-9.69727L8.50586-7.7832L6.5918-7.7832Q6.25-7.7832 6.04492-7.57812Q5.83984-7.37305 5.83984-7.04102Z"/>
  </g>
  <g transform="matrix(1 0 0 1 281.867 1933)">
   <path d="M11.709 2.91016Q13.75 2.91016 15.5518 2.12891Q17.3535 1.34766 18.7305-0.0292969Q20.1074-1.40625 20.8887-3.20801Q21.6699-5.00977 21.6699-7.05078Q21.6699-9.0918 20.8887-10.8936Q20.1074-12.6953 18.7305-14.0723Q17.3535-15.4492 15.5469-16.2305Q13.7402-17.0117 11.6992-17.0117Q9.6582-17.0117 7.85645-16.2305Q6.05469-15.4492 4.68262-14.0723Q3.31055-12.6953 2.5293-10.8936Q1.74805-9.0918 1.74805-7.05078Q1.74805-5.00977 2.5293-3.20801Q3.31055-1.40625 4.6875-0.0292969Q6.06445 1.34766 7.86621 2.12891Q9.66797 2.91016 11.709 2.91016ZM11.709 1.25Q9.98047 1.25 8.47656 0.605469Q6.97266-0.0390625 5.83496-1.17676Q4.69727-2.31445 4.05762-3.81836Q3.41797-5.32227 3.41797-7.05078Q3.41797-8.7793 4.05762-10.2832Q4.69727-11.7871 5.83008-12.9297Q6.96289-14.0723 8.4668-14.7119Q9.9707-15.3516 11.6992-15.3516Q13.4277-15.3516 14.9316-14.7119Q16.4355-14.0723 17.5781-12.9297Q18.7207-11.7871 19.3652-10.2832Q20.0098-8.7793 20.0098-7.05078Q20.0098-5.32227 19.3701-3.81836Q18.7305-2.31445 17.5928-1.17676Q16.4551-0.0390625 14.9463 0.605469Q13.4375 1.25 11.709 1.25ZM7.39258-7.04102Q7.39258-6.68945 7.62695-6.46484Q7.86133-6.24023 8.23242-6.24023L10.8789-6.24023L10.8789-3.57422Q10.8789-3.21289 11.1035-2.9834Q11.3281-2.75391 11.6797-2.75391Q12.0508-2.75391 12.2852-2.9834Q12.5195-3.21289 12.5195-3.57422L12.5195-6.24023L15.1758-6.24023Q15.5371-6.24023 15.7715-6.46484Q16.0059-6.68945 16.0059-7.04102Q16.0059-7.41211 15.7715-7.6416Q15.5371-7.87109 15.1758-7.87109L12.5195-7.87109L12.5195-10.5176Q12.5195-10.8984 12.2852-11.1279Q12.0508-11.3574 11.6797-11.3574Q11.3281-11.3574 11.1035-11.1279Q10.8789-10.8984 10.8789-10.5176L10.8789-7.87109L8.23242-7.87109Q7.85156-7.87109 7.62207-7.6416Q7.39258-7.41211 7.39258-7.04102Z"/>
  </g>
  <g transform="matrix(1 0 0 1 305.646 1933)">
   <path d="M14.9707 5.66406Q17.0605 5.66406 18.96 5.01465Q20.8594 4.36523 22.4512 3.19336Q24.043 2.02148 25.2197 0.429688Q26.3965-1.16211 27.0459-3.06641Q27.6953-4.9707 27.6953-7.05078Q27.6953-9.14062 27.0459-11.04Q26.3965-12.9395 25.2197-14.5312Q24.043-16.123 22.4512-17.2998Q20.8594-18.4766 18.9551-19.126Q17.0508-19.7754 14.9609-19.7754Q12.8711-19.7754 10.9717-19.126Q9.07227-18.4766 7.48535-17.2998Q5.89844-16.123 4.72168-14.5312Q3.54492-12.9395 2.90039-11.04Q2.25586-9.14062 2.25586-7.05078Q2.25586-4.9707 2.90527-3.06641Q3.55469-1.16211 4.72656 0.429688Q5.89844 2.02148 7.49023 3.19336Q9.08203 4.36523 10.9814 5.01465Q12.8809 5.66406 14.9707 5.66406ZM14.9707 3.84766Q13.1641 3.84766 11.5283 3.2959Q9.89258 2.74414 8.53516 1.74805Q7.17773 0.751953 6.17676-0.610352Q5.17578-1.97266 4.62891-3.6084Q4.08203-5.24414 4.08203-7.05078Q4.08203-8.86719 4.62891-10.5029Q5.17578-12.1387 6.17188-13.501Q7.16797-14.8633 8.52539-15.8594Q9.88281-16.8555 11.5186-17.4023Q13.1543-17.9492 14.9609-17.9492Q16.7773-17.9492 18.4131-17.4023Q20.0488-16.8555 21.4111-15.8594Q22.7734-14.8633 23.7695-13.501Q24.7656-12.1387 25.3174-10.5029Q25.8691-8.86719 25.8691-7.05078Q25.8789-5.24414 25.332-3.6084Q24.7852-1.97266 23.7842-0.610352Q22.7832 0.751953 21.4209 1.74805Q20.0586 2.74414 18.4229 3.2959Q16.7871 3.84766 14.9707 3.84766ZM9.45312-7.04102Q9.45312-6.66016 9.71191-6.41113Q9.9707-6.16211 10.3711-6.16211L14.0625-6.16211L14.0625-2.46094Q14.0625-2.06055 14.3115-1.80664Q14.5605-1.55273 14.9414-1.55273Q15.3516-1.55273 15.6055-1.80664Q15.8594-2.06055 15.8594-2.46094L15.8594-6.16211L19.5605-6.16211Q19.9609-6.16211 20.2148-6.41113Q20.4688-6.66016 20.4688-7.04102Q20.4688-7.45117 20.2148-7.70508Q19.9609-7.95898 19.5605-7.95898L15.8594-7.95898L15.8594-11.6504Q15.8594-12.0605 15.6055-12.3145Q15.3516-12.5684 14.9414-12.5684Q14.5605-12.5684 14.3115-12.3096Q14.0625-12.0508 14.0625-11.6504L14.0625-7.95898L10.3711-7.95898Q9.96094-7.95898 9.70703-7.70508Q9.45312-7.45117 9.45312-7.04102Z"/>
  </g>
  <text style="stroke:none;fill:black;font-family:sans-serif;font-size:13;font-weight:bold;" transform="matrix(1 0 0 1 263 1953)">Design Variations</text>
  <text style="stroke:none;fill:black;font-family:sans-serif;font-size:13;" transform="matrix(1 0 0 1 263 1971)">Symbols are supported in up to nine weights and three scales.</text>
  <text style="stroke:none;fill:black;font-family:sans-serif;font-size:13;" transform="matrix(1 0 0 1 263 1989)">For optimal layout with text and other symbols, vertically align</text>
  <text style="stroke:none;fill:black;font-family:sans-serif;font-size:13;" transform="matrix(1 0 0 1 263 2007)">symbols with the adjacent text.</text>
  <line style="fill:none;stroke:#00AEEF;stroke-width:0.5;opacity:1.0;" x1="776" x2="776" y1="1919" y2="1933"/>
  <g transform="matrix(1 0 0 1 776 1933)">
   <path d="M3.31055 0.15625Q3.70117 0.15625 3.91602-0.00976562Q4.13086-0.175781 4.26758-0.585938L5.52734-4.0332L11.2891-4.0332L12.5488-0.585938Q12.6855-0.175781 12.9004-0.00976562Q13.1152 0.15625 13.4961 0.15625Q13.8867 0.15625 14.1162-0.0585938Q14.3457-0.273438 14.3457-0.644531Q14.3457-0.869141 14.2383-1.17188L9.6582-13.3691Q9.48242-13.8184 9.17969-14.043Q8.87695-14.2676 8.4082-14.2676Q7.5-14.2676 7.17773-13.3789L2.59766-1.16211Q2.49023-0.859375 2.49023-0.634766Q2.49023-0.263672 2.70996-0.0537109Q2.92969 0.15625 3.31055 0.15625ZM6.00586-5.51758L8.37891-12.0898L8.42773-12.0898L10.8008-5.51758Z"/>
  </g>
  <line style="fill:none;stroke:#00AEEF;stroke-width:0.5;opacity:1.0;" x1="793.197" x2="793.197" y1="1919" y2="1933"/>
  <text style="stroke:none;fill:black;font-family:sans-serif;font-size:13;font-weight:bold;" transform="matrix(1 0 0 1 776 1953)">Margins</text>
  <text style="stroke:none;fill:black;font-family:sans-serif;font-size:13;" transform="matrix(1 0 0 1 776 1971)">Leading and trailing margins on the left and right side of each symbol</text>
  <text style="stroke:none;fill:black;font-family:sans-serif;font-size:13;" transform="matrix(1 0 0 1 776 1989)">can be adjusted by modifying the x-location of the margin guidelines.</text>
  <text style="stroke:none;fill:black;font-family:sans-serif;font-size:13;" transform="matrix(1 0 0 1 776 2007)">Modifications are automatically applied proportionally to all</text>
  <text style="stroke:none;fill:black;font-family:sans-serif;font-size:13;" transform="matrix(1 0 0 1 776 2025)">scales and weights.</text>
  <g transform="matrix(1 0 0 1 1289 1933)">
   <path d="M2.8418 1.86523L4.54102 3.57422Q5.18555 4.22852 5.90332 4.17969Q6.62109 4.13086 7.31445 3.35938L18.0078-8.42773L17.041-9.4043L6.42578 2.27539Q6.16211 2.57812 5.89355 2.61719Q5.625 2.65625 5.27344 2.30469L4.10156 1.14258Q3.75 0.791016 3.79395 0.522461Q3.83789 0.253906 4.14062-0.0195312L15.6152-10.8203L14.6387-11.7871L3.04688-0.898438Q2.30469-0.214844 2.25098 0.498047Q2.19727 1.21094 2.8418 1.86523ZM9.25781-16.3281Q8.94531-16.0254 8.90625-15.6348Q8.86719-15.2441 9.04297-14.9512Q9.21875-14.6777 9.55566-14.541Q9.89258-14.4043 10.3809-14.5215Q11.4746-14.7754 12.5977-14.7314Q13.7207-14.6875 14.7949-13.9844L14.209-12.5293Q13.9551-11.9043 14.0674-11.4404Q14.1797-10.9766 14.5801-10.5664L16.875-8.25195Q17.2363-7.88086 17.5781-7.82227Q17.9199-7.76367 18.3398-7.8418L19.4043-8.03711L20.0684-7.36328L20.0293-6.80664Q20-6.43555 20.1221-6.12305Q20.2441-5.81055 20.6055-5.44922L21.3672-4.70703Q21.7285-4.3457 22.1533-4.33105Q22.5781-4.31641 22.9297-4.66797L25.8398-7.58789Q26.1914-7.93945 26.1816-8.35449Q26.1719-8.76953 25.8105-9.13086L25.0391-9.89258Q24.6875-10.2539 24.3799-10.3857Q24.0723-10.5176 23.7109-10.4883L23.1348-10.4395L22.4902-11.0742L22.7344-12.1973Q22.832-12.6172 22.6953-12.9834Q22.5586-13.3496 22.1191-13.7891L19.9219-15.9766Q18.6719-17.2168 17.2607-17.8369Q15.8496-18.457 14.4189-18.4814Q12.9883-18.5059 11.665-17.959Q10.3418-17.4121 9.25781-16.3281ZM10.752-15.957Q11.6602-16.6211 12.7002-16.9043Q13.7402-17.1875 14.8047-17.085Q15.8691-16.9824 16.8701-16.5137Q17.8711-16.0449 18.7012-15.2051L21.1328-12.793Q21.3086-12.6172 21.3525-12.4512Q21.3965-12.2852 21.3379-12.0312L21.0156-10.5469L22.5195-9.0625L23.5059-9.12109Q23.6914-9.13086 23.7891-9.09668Q23.8867-9.0625 24.0332-8.91602L24.6094-8.33984L22.168-5.89844L21.5918-6.47461Q21.4453-6.62109 21.4062-6.71875Q21.3672-6.81641 21.377-7.01172L21.4453-7.98828L19.9512-9.47266L18.4277-9.21875Q18.1836-9.16992 18.042-9.2041Q17.9004-9.23828 17.7148-9.41406L15.7129-11.416Q15.5176-11.5918 15.4932-11.7529Q15.4688-11.9141 15.5859-12.1875L16.4648-14.2773Q15.293-15.3711 13.8281-15.791Q12.3633-16.2109 10.8398-15.7617Q10.7227-15.7324 10.6885-15.8057Q10.6543-15.8789 10.752-15.957Z"/>
  </g>
  <text style="stroke:none;fill:black;font-family:sans-serif;font-size:13;font-weight:bold;" transform="matrix(1 0 0 1 1289 1953)">Exporting</text>
  <text style="stroke:none;fill:black;font-family:sans-serif;font-size:13;" transform="matrix(1 0 0 1 1289 1971)">Symbols should be outlined when exporting to ensure the</text>
  <text style="stroke:none;fill:black;font-family:sans-serif;font-size:13;" transform="matrix(1 0 0 1 1289 1989)">design is preserved when submitting to Xcode.</text>
  <text id="template-version" style="stroke:none;fill:black;font-family:sans-serif;font-size:13;text-anchor:end;" transform="matrix(1 0 0 1 3036 1933)">Template v.2.0</text>
  <text style="stroke:none;fill:black;font-family:sans-serif;font-size:13;text-anchor:end;" transform="matrix(1 0 0 1 3036 1951)">Requires Xcode 13 or greater</text>
  <text id="descriptive-name" style="stroke:none;fill:black;font-family:sans-serif;font-size:13;text-anchor:end;" transform="matrix(1 0 0 1 3036 1969)">Generated from heart.square.fill</text>
  <text style="stroke:none;fill:black;font-family:sans-serif;font-size:13;text-anchor:end;" transform="matrix(1 0 0 1 3036 1987)">Typeset at 100 points</text>
  <text style="stroke:none;fill:black;font-family:sans-serif;font-size:13;" transform="matrix(1 0 0 1 263 726)">Small</text>
  <text style="stroke:none;fill:black;font-family:sans-serif;font-size:13;" transform="matrix(1 0 0 1 263 1156)">Medium</text>
  <text style="stroke:none;fill:black;font-family:sans-serif;font-size:13;" transform="matrix(1 0 0 1 263 1586)">Large</text>
 </g>
 <g id="Guides">
  <g id="H-reference" style="fill:#27AAE1;stroke:none;" transform="matrix(1 0 0 1 339 696)">
   <path d="M0.976562 0L3.66211 0L29.3457-67.1387L30.0293-67.1387L30.0293-70.459L28.125-70.459ZM11.6699-24.4629L46.9727-24.4629L46.2402-26.709L12.4512-26.709ZM55.127 0L57.7637 0L30.6152-70.459L29.4434-70.459L29.4434-67.1387Z"/>
  </g>
  <line id="Baseline-S" style="fill:none;stroke:#27AAE1;opacity:1;stroke-width:0.5;" x1="263" x2="3036" y1="696" y2="696"/>
  <line id="Capline-S" style="fill:none;stroke:#27AAE1;opacity:1;stroke-width:0.5;" x1="263" x2="3036" y1="625.541" y2="625.541"/>
  <g id="H-reference" style="fill:#27AAE1;stroke:none;" transform="matrix(1 0 0 1 339 1126)">
   <path d="M0.976562 0L3.66211 0L29.3457-67.1387L30.0293-67.1387L30.0293-70.459L28.125-70.459ZM11.6699-24.4629L46.9727-24.4629L46.2402-26.709L12.4512-26.709ZM55.127 0L57.7637 0L30.6152-70.459L29.4434-70.459L29.4434-67.1387Z"/>
  </g>
  <line id="Baseline-M" style="fill:none;stroke:#27AAE1;opacity:1;stroke-width:0.5;" x1="263" x2="3036" y1="1126" y2="1126"/>
  <line id="Capline-M" style="fill:none;stroke:#27AAE1;opacity:1;stroke-width:0.5;" x1="263" x2="3036" y1="1055.54" y2="1055.54"/>
  <g id="H-reference" style="fill:#27AAE1;stroke:none;" transform="matrix(1 0 0 1 339 1556)">
   <path d="M0.976562 0L3.66211 0L29.3457-67.1387L30.0293-67.1387L30.0293-70.459L28.125-70.459ZM11.6699-24.4629L46.9727-24.4629L46.2402-26.709L12.4512-26.709ZM55.127 0L57.7637 0L30.6152-70.459L29.4434-70.459L29.4434-67.1387Z"/>
  </g>
  <line id="Baseline-L" style="fill:none;stroke:#27AAE1;opacity:1;stroke-width:0.5;" x1="263" x2="3036" y1="1556" y2="1556"/>
  <line id="Capline-L" style="fill:none;stroke:#27AAE1;opacity:1;stroke-width:0.5;" x1="263" x2="3036" y1="1485.54" y2="1485.54"/>
  <line id="left-margin" style="fill:none;stroke:#00AEEF;stroke-width:0.5;opacity:1.0;" x1="1392.45" x2="1392.45" y1="1030.79" y2="1150.12"/>
  <line id="right-margin" style="fill:none;stroke:#00AEEF;stroke-width:0.5;opacity:1.0;" x1="1507.24" x2="1507.24" y1="1030.79" y2="1150.12"/>
 </g>
 <g id="Symbols">
  <g id="Black-L" transform="matrix(1 0 0 1 2855.62 1556)">
   <path d="M39.9902 26.5137L115.576 26.5137Q127.002 26.5137 133.252 20.3125Q139.502 14.1113 139.502 2.68555L139.502-73.0957Q139.502-84.4727 133.252-90.6738Q127.002-96.875 115.576-96.875L39.9902-96.875Q28.5645-96.875 22.3145-90.6738Q16.0645-84.4727 16.0645-73.0957L16.0645 2.68555Q16.0645 14.1113 22.3145 20.3125Q28.5645 26.5137 39.9902 26.5137ZM63.2324-62.9883Q68.75-62.9883 72.5586-60.2783Q76.3672-57.5684 78.3691-54.1016Q80.3711-57.5684 84.1797-60.2783Q87.9883-62.9883 93.5059-62.9883Q98.5352-62.9883 102.686-60.5225Q106.836-58.0566 109.302-53.5889Q111.768-49.1211 111.768-43.1641Q111.768-37.0605 109.326-31.665Q106.885-26.2695 103.125-21.7529Q99.3652-17.2363 95.2637-13.7451Q91.1621-10.2539 87.6953-7.91016Q84.2285-5.56641 82.5195-4.58984Q81.5918-4.10156 80.4688-3.54004Q79.3457-2.97852 78.418-2.97852Q77.4902-2.97852 76.3184-3.54004Q75.1465-4.10156 74.2188-4.58984Q72.5098-5.61523 69.0674-7.95898Q65.625-10.3027 61.499-13.7939Q57.373-17.2852 53.6133-21.7773Q49.8535-26.2695 47.4121-31.665Q44.9707-37.0605 44.9707-43.1641Q44.9707-49.1211 47.4365-53.5889Q49.9023-58.0566 54.0283-60.5225Q58.1543-62.9883 63.2324-62.9883Z"/>
  </g>
  <g id="Heavy-L" transform="matrix(1 0 0 1 2559.93 1556)">
   <path d="M38.8184 25.4883L114.697 25.4883Q125.684 25.4883 131.567 19.6289Q137.451 13.7695 137.451 2.88086L137.451-73.2422Q137.451-84.1309 131.567-89.9902Q125.684-95.8496 114.697-95.8496L38.8184-95.8496Q27.8809-95.8496 21.9727-89.9902Q16.0645-84.1309 16.0645-73.2422L16.0645 2.88086Q16.0645 13.8184 21.9727 19.6533Q27.8809 25.4883 38.8184 25.4883ZM61.9629-63.1836Q67.4316-63.1836 71.2646-60.4736Q75.0977-57.7637 77.1973-54.1016Q79.2969-57.7637 83.1543-60.4736Q87.0117-63.1836 92.4316-63.1836Q97.5586-63.1836 101.733-60.7178Q105.908-58.252 108.35-53.7842Q110.791-49.3164 110.791-43.457Q110.791-37.5488 108.472-32.2754Q106.152-27.002 102.466-22.4854Q98.7793-17.9688 94.6777-14.3555Q90.5762-10.7422 86.9141-8.17871Q83.252-5.61523 81.0547-4.24805Q80.2246-3.75977 79.1748-3.22266Q78.125-2.68555 77.2461-2.68555Q76.416-2.68555 75.3174-3.22266Q74.2188-3.75977 73.3398-4.24805Q71.1426-5.61523 67.5049-8.17871Q63.8672-10.7422 59.7412-14.3555Q55.6152-17.9688 51.9531-22.4609Q48.291-26.9531 45.9473-32.251Q43.6035-37.5488 43.6035-43.457Q43.6035-49.3164 46.0693-53.7842Q48.5352-58.252 52.6855-60.7178Q56.8359-63.1836 61.9629-63.1836Z"/>
  </g>
  <g id="Bold-L" transform="matrix(1 0 0 1 2264.34 1556)">
   <path d="M37.5488 24.3652L113.721 24.3652Q124.17 24.3652 129.688 18.8965Q135.205 13.4277 135.205 3.07617L135.205-73.4375Q135.205-83.7891 129.688-89.2578Q124.17-94.7266 113.721-94.7266L37.5488-94.7266Q27.0996-94.7266 21.582-89.2578Q16.0645-83.7891 16.0645-73.4375L16.0645 3.07617Q16.0645 13.4766 21.582 18.9209Q27.0996 24.3652 37.5488 24.3652ZM60.5957-63.4277Q65.9668-63.4277 69.8486-60.6934Q73.7305-57.959 75.9277-54.1016Q78.125-57.959 82.0312-60.6934Q85.9375-63.4277 91.2598-63.4277Q96.4844-63.4277 100.684-60.9375Q104.883-58.4473 107.324-54.0039Q109.766-49.5605 109.766-43.75Q109.766-38.0859 107.544-32.9346Q105.322-27.7832 101.758-23.2666Q98.1934-18.75 94.0674-15.0146Q89.9414-11.2793 86.084-8.47168Q82.2266-5.66406 79.4922-3.90625Q78.6621-3.41797 77.71-2.90527Q76.7578-2.39258 76.0254-2.39258Q75.2441-2.39258 74.2432-2.90527Q73.2422-3.41797 72.3633-3.90625Q69.6289-5.61523 65.7471-8.42285Q61.8652-11.2305 57.7637-14.9658Q53.6621-18.7012 50.0977-23.2422Q46.5332-27.7832 44.3115-32.9346Q42.0898-38.0859 42.0898-43.75Q42.0898-49.5605 44.5312-54.0039Q46.9727-58.4473 51.1719-60.9375Q55.3711-63.4277 60.5957-63.4277Z"/>
  </g>
  <g id="Semibold-L" transform="matrix(1 0 0 1 1968.44 1556)">
   <path d="M36.6211 23.584L112.988 23.584Q123.145 23.584 128.369 18.3838Q133.594 13.1836 133.594 3.17383L133.594-73.5352Q133.594-83.4961 128.369-88.6963Q123.145-93.8965 112.988-93.8965L36.6211-93.8965Q26.5625-93.8965 21.3135-88.7207Q16.0645-83.5449 16.0645-73.5352L16.0645 3.17383Q16.0645 13.2324 21.3135 18.4082Q26.5625 23.584 36.6211 23.584ZM59.668-63.623Q64.9414-63.623 68.8721-60.8887Q72.8027-58.1543 75.0488-54.1016Q77.2949-58.1543 81.25-60.8887Q85.2051-63.623 90.4297-63.623Q95.752-63.623 99.9512-61.1084Q104.15-58.5938 106.592-54.1748Q109.033-49.7559 109.033-43.9941Q109.033-38.5254 106.885-33.4473Q104.736-28.3691 101.245-23.8525Q97.7539-19.3359 93.6279-15.5273Q89.502-11.7188 85.498-8.71582Q81.4941-5.71289 78.3691-3.66211Q77.6367-3.17383 76.7334-2.70996Q75.8301-2.24609 75.1465-2.24609Q74.4629-2.24609 73.5107-2.70996Q72.5586-3.17383 71.7285-3.66211Q68.5547-5.66406 64.5264-8.64258Q60.498-11.6211 56.3965-15.4541Q52.2949-19.2871 48.8281-23.8281Q45.3613-28.3691 43.2129-33.4473Q41.0645-38.5254 41.0645-43.9941Q41.0645-49.7559 43.5059-54.1748Q45.9473-58.5938 50.1465-61.1084Q54.3457-63.623 59.668-63.623Z"/>
  </g>
  <g id="Medium-L" transform="matrix(1 0 0 1 1672.31 1556)">
   <path d="M35.9375 22.998L112.5 22.998Q122.363 22.998 127.393 17.9932Q132.422 12.9883 132.422 3.27148L132.422-73.6328Q132.422-83.3008 127.393-88.3057Q122.363-93.3105 112.5-93.3105L35.9375-93.3105Q26.1719-93.3105 21.1182-88.3301Q16.0645-83.3496 16.0645-73.6328L16.0645 3.27148Q16.0645 13.0371 21.1182 18.0176Q26.1719 22.998 35.9375 22.998ZM58.8867-63.7695Q64.1113-63.7695 68.0664-61.0107Q72.0215-58.252 74.3652-54.1016Q76.6602-58.252 80.6152-61.0107Q84.5703-63.7695 89.7949-63.7695Q95.166-63.7695 99.3652-61.2305Q103.564-58.6914 106.006-54.2725Q108.447-49.8535 108.447-44.1895Q108.447-38.7695 106.348-33.7891Q104.248-28.8086 100.83-24.292Q97.4121-19.7754 93.2861-15.8691Q89.1602-11.9629 85.0342-8.83789Q80.9082-5.71289 77.4902-3.4668Q76.7578-2.97852 75.9277-2.51465Q75.0977-2.05078 74.4629-2.05078Q73.7793-2.05078 72.876-2.51465Q71.9727-2.97852 71.1426-3.4668Q67.7246-5.66406 63.5742-8.76465Q59.4238-11.8652 55.3223-15.7715Q51.2207-19.6777 47.8027-24.2188Q44.3848-28.7598 42.3096-33.7646Q40.2344-38.7695 40.2344-44.1895Q40.2344-49.8535 42.6514-54.2725Q45.0684-58.6914 49.292-61.2305Q53.5156-63.7695 58.8867-63.7695Z"/>
  </g>
  <g id="Regular-L" transform="matrix(1 0 0 1 1376.38 1556)">
   <path d="M35.0586 22.2168L111.816 22.2168Q121.338 22.2168 126.099 17.4805Q130.859 12.7441 130.859 3.41797L130.859-73.7305Q130.859-83.0566 126.099-87.793Q121.338-92.5293 111.816-92.5293L35.0586-92.5293Q25.6348-92.5293 20.8496-87.8174Q16.0645-83.1055 16.0645-73.7305L16.0645 3.41797Q16.0645 12.793 20.8496 17.5049Q25.6348 22.2168 35.0586 22.2168ZM57.959-63.916Q63.1348-63.916 67.1143-61.1572Q71.0938-58.3984 73.4863-54.1016Q75.8301-58.3984 79.834-61.1572Q83.8379-63.916 88.9648-63.916Q94.4336-63.916 98.6572-61.377Q102.881-58.8379 105.298-54.4189Q107.715-50 107.715-44.3848Q107.715-39.1602 105.713-34.2529Q103.711-29.3457 100.342-24.8291Q96.9727-20.3125 92.8467-16.333Q88.7207-12.3535 84.4482-9.05762Q80.1758-5.76172 76.416-3.22266Q75.7324-2.73438 74.9512-2.29492Q74.1699-1.85547 73.584-1.85547Q72.998-1.85547 72.1436-2.29492Q71.2891-2.73438 70.5078-3.22266Q66.6992-5.66406 62.4023-8.93555Q58.1055-12.207 54.0039-16.1865Q49.9023-20.166 46.5576-24.7314Q43.2129-29.2969 41.2109-34.2285Q39.209-39.1602 39.209-44.3848Q39.209-50 41.626-54.4189Q44.043-58.8379 48.291-61.377Q52.5391-63.916 57.959-63.916Z"/>
  </g>
  <g id="Light-L" transform="matrix(1 0 0 1 1080.5 1556)">
   <path d="M34.0332 21.4355L111.182 21.4355Q120.117 21.4355 124.658 16.8945Q129.199 12.3535 129.199 3.56445L129.199-73.8281Q129.199-82.6172 124.658-87.1582Q120.117-91.6992 111.182-91.6992L34.0332-91.6992Q25.1465-91.6992 20.6055-87.207Q16.0645-82.7148 16.0645-73.8281L16.0645 3.56445Q16.0645 12.4023 20.6055 16.9189Q25.1465 21.4355 34.0332 21.4355ZM57.2754-63.8184Q62.4023-63.8184 66.3818-61.0596Q70.3613-58.3008 72.6562-54.1992Q74.9023-58.3008 78.9307-61.0596Q82.959-63.8184 87.9883-63.8184Q93.3594-63.8184 97.5342-61.3281Q101.709-58.8379 104.102-54.5166Q106.494-50.1953 106.494-44.7266Q106.494-39.4043 104.395-34.4238Q102.295-29.4434 98.8281-24.9268Q95.3613-20.4102 91.2109-16.4795Q87.0605-12.5488 82.8857-9.32617Q78.7109-6.10352 75.2441-3.66211Q74.6094-3.22266 73.9258-2.85645Q73.2422-2.49023 72.7051-2.49023Q72.2168-2.49023 71.4844-2.88086Q70.752-3.27148 70.0684-3.66211Q66.5039-5.95703 62.2803-9.13086Q58.0566-12.3047 53.9307-16.2354Q49.8047-20.166 46.3867-24.7559Q42.9688-29.3457 40.8936-34.375Q38.8184-39.4043 38.8184-44.7266Q38.8184-50.1953 41.2109-54.5166Q43.6035-58.8379 47.7783-61.3281Q51.9531-63.8184 57.2754-63.8184Z"/>
  </g>
  <g id="Thin-L" transform="matrix(1 0 0 1 784.889 1556)">
   <path d="M32.666 20.3613L110.352 20.3613Q118.506 20.3613 122.754 16.0889Q127.002 11.8164 127.002 3.75977L127.002-73.9746Q127.002-82.0312 122.754-86.3037Q118.506-90.5762 110.352-90.5762L32.666-90.5762Q24.5117-90.5762 20.2881-86.377Q16.0645-82.1777 16.0645-73.9746L16.0645 3.75977Q16.0645 11.9141 20.2881 16.1377Q24.5117 20.3613 32.666 20.3613ZM56.3477-63.7207Q61.377-63.7207 65.3809-60.9131Q69.3848-58.1055 71.5332-54.2969Q73.7305-58.1055 77.7344-60.9131Q81.7383-63.7207 86.7188-63.7207Q91.9434-63.7207 96.0449-61.2793Q100.146-58.8379 102.49-54.6631Q104.834-50.4883 104.834-45.166Q104.834-39.6973 102.637-34.6436Q100.439-29.5898 96.8262-25.0488Q93.2129-20.5078 89.0381-16.626Q84.8633-12.7441 80.7861-9.64355Q76.709-6.54297 73.6328-4.24805Q73.0957-3.85742 72.5342-3.61328Q71.9727-3.36914 71.582-3.36914Q71.1426-3.36914 70.5811-3.6377Q70.0195-3.90625 69.4824-4.24805Q66.2109-6.29883 62.1094-9.32617Q58.0078-12.3535 53.833-16.2842Q49.6582-20.2148 46.1182-24.8291Q42.5781-29.4434 40.4297-34.5703Q38.2812-39.6973 38.2812-45.166Q38.2812-50.4883 40.625-54.6631Q42.9688-58.8379 47.0703-61.2793Q51.1719-63.7207 56.3477-63.7207Z"/>
  </g>
  <g id="Ultralight-L" transform="matrix(1 0 0 1 488.739 1556)">
   <path d="M31.9824 19.8242L109.961 19.8242Q117.725 19.8242 121.802 15.6738Q125.879 11.5234 125.879 3.85742L125.879-74.0723Q125.879-81.7383 121.802-85.8643Q117.725-89.9902 109.961-89.9902L31.9824-89.9902Q24.1699-89.9902 20.1172-85.9375Q16.0645-81.8848 16.0645-74.0723L16.0645 3.85742Q16.0645 11.6699 20.1172 15.7471Q24.1699 19.8242 31.9824 19.8242ZM55.8594-63.6719Q60.8887-63.6719 64.8926-60.8643Q68.8965-58.0566 70.9473-54.3945Q73.0469-58.0566 77.0752-60.8643Q81.1035-63.6719 86.0352-63.6719Q91.2109-63.6719 95.2637-61.2549Q99.3164-58.8379 101.636-54.7363Q103.955-50.6348 103.955-45.459Q103.955-39.8438 101.709-34.7656Q99.4629-29.6875 95.8008-25.1465Q92.1387-20.6055 87.915-16.748Q83.6914-12.8906 79.6875-9.83887Q75.6836-6.78711 72.8027-4.54102Q72.3145-4.19922 71.8262-4.00391Q71.3379-3.80859 70.9473-3.80859Q70.6055-3.80859 70.1172-4.05273Q69.6289-4.29688 69.1406-4.54102Q66.0645-6.49414 62.0117-9.47266Q57.959-12.4512 53.7598-16.333Q49.5605-20.2148 45.9717-24.8535Q42.3828-29.4922 40.1855-34.668Q37.9883-39.8438 37.9883-45.459Q37.9883-50.6348 40.3076-54.7363Q42.627-58.8379 46.6797-61.2549Q50.7324-63.6719 55.8594-63.6719Z"/>
  </g>
  <g id="Black-M" transform="matrix(1 0 0 1 2872.54 1126)">
   <path d="M31.5918 13.2324L90.1367 13.2324Q99.1699 13.2324 104.224 8.17871Q109.277 3.125 109.277-5.9082L109.277-64.4531Q109.277-73.5352 104.224-78.5645Q99.1699-83.5938 90.1367-83.5938L31.5918-83.5938Q22.5586-83.5938 17.5049-78.5645Q12.4512-73.5352 12.4512-64.4531L12.4512-5.9082Q12.4512 3.125 17.5049 8.17871Q22.5586 13.2324 31.5918 13.2324ZM49.8047-56.543Q54.1504-56.543 57.0557-54.4434Q59.9609-52.3438 61.4258-49.9023Q62.8418-52.3438 65.7471-54.4434Q68.6523-56.543 72.998-56.543Q76.8066-56.543 79.9805-54.6387Q83.1543-52.7344 85.0586-49.3164Q86.9629-45.8984 86.9629-41.2598Q86.9629-36.2793 84.9854-31.9824Q83.0078-27.6855 79.9561-24.1699Q76.9043-20.6543 73.7305-18.0664Q70.5566-15.4785 68.0664-13.8916Q65.5762-12.3047 64.7461-11.9141Q63.9648-11.5723 63.0859-11.1328Q62.207-10.6934 61.4258-10.6934Q60.6445-10.6934 59.7168-11.1328Q58.7891-11.5723 58.1055-11.9141Q57.2754-12.3535 54.7852-13.9404Q52.2949-15.5273 49.0967-18.1152Q45.8984-20.7031 42.8711-24.1943Q39.8438-27.6855 37.8418-31.9824Q35.8398-36.2793 35.8398-41.2598Q35.8398-45.8984 37.7441-49.3164Q39.6484-52.7344 42.8223-54.6387Q45.9961-56.543 49.8047-56.543Z"/>
  </g>
  <g id="Heavy-M" transform="matrix(1 0 0 1 2576.65 1126)">
   <path d="M30.7129 12.4023L89.4043 12.4023Q98.0957 12.4023 102.856 7.66602Q107.617 2.92969 107.617-5.76172L107.617-64.5996Q107.617-73.291 102.856-78.0273Q98.0957-82.7637 89.4043-82.7637L30.7129-82.7637Q21.9727-82.7637 17.2119-78.0273Q12.4512-73.291 12.4512-64.5996L12.4512-5.76172Q12.4512 2.92969 17.2119 7.66602Q21.9727 12.4023 30.7129 12.4023ZM48.7793-56.7383Q53.0273-56.7383 55.9814-54.6387Q58.9355-52.5391 60.498-49.9023Q62.0117-52.5391 64.9658-54.6387Q67.9199-56.7383 72.168-56.7383Q76.123-56.7383 79.3213-54.834Q82.5195-52.9297 84.4238-49.4873Q86.3281-46.0449 86.3281-41.4551Q86.3281-36.7188 84.4727-32.5439Q82.6172-28.3691 79.6631-24.8535Q76.709-21.3379 73.5352-18.6279Q70.3613-15.918 67.6758-14.0869Q64.9902-12.2559 63.623-11.5234Q62.8906-11.1328 62.0605-10.7178Q61.2305-10.3027 60.5469-10.3027Q59.8145-10.3027 58.9355-10.7178Q58.0566-11.1328 57.373-11.5234Q56.0059-12.3047 53.3203-14.1357Q50.6348-15.9668 47.4365-18.6768Q44.2383-21.3867 41.3086-24.8779Q38.3789-28.3691 36.499-32.5439Q34.6191-36.7188 34.6191-41.4551Q34.6191-46.0449 36.5234-49.4873Q38.4277-52.9297 41.626-54.834Q44.8242-56.7383 48.7793-56.7383Z"/>
  </g>
  <g id="Bold-M" transform="matrix(1 0 0 1 2280.85 1126)">
   <path d="M29.6875 11.5234L88.5742 11.5234Q96.9238 11.5234 101.367 7.10449Q105.811 2.68555 105.811-5.66406L105.811-64.7461Q105.811-73.0469 101.367-77.4658Q96.9238-81.8848 88.5742-81.8848L29.6875-81.8848Q21.3379-81.8848 16.8945-77.4658Q12.4512-73.0469 12.4512-64.7461L12.4512-5.66406Q12.4512 2.68555 16.8945 7.10449Q21.3379 11.5234 29.6875 11.5234ZM47.5586-57.0312Q51.7578-57.0312 54.7607-54.9316Q57.7637-52.832 59.4238-49.8535Q61.084-52.832 64.0869-54.9316Q67.0898-57.0312 71.2402-57.0312Q75.293-57.0312 78.54-55.0781Q81.7871-53.125 83.6914-49.6826Q85.5957-46.2402 85.5957-41.6992Q85.5957-37.207 83.8379-33.1787Q82.0801-29.1504 79.2725-25.6348Q76.4648-22.1191 73.291-19.2871Q70.1172-16.4551 67.2119-14.3555Q64.3066-12.2559 62.3535-11.0352Q61.6699-10.6934 60.8887-10.2783Q60.1074-9.86328 59.4727-9.86328Q58.8379-9.86328 58.0078-10.2783Q57.1777-10.6934 56.4941-11.0352Q54.541-12.2559 51.6113-14.3555Q48.6816-16.4551 45.5078-19.2871Q42.334-22.1191 39.5264-25.6348Q36.7188-29.1504 34.9854-33.1787Q33.252-37.207 33.252-41.6992Q33.252-46.2402 35.1318-49.6826Q37.0117-53.125 40.2588-55.0781Q43.5059-57.0312 47.5586-57.0312Z"/>
  </g>
  <g id="Semibold-M" transform="matrix(1 0 0 1 1984.77 1126)">
   <path d="M29.0039 10.8887L87.9883 10.8887Q96.0938 10.8887 100.317 6.68945Q104.541 2.49023 104.541-5.51758L104.541-64.8438Q104.541-72.8516 100.317-77.0508Q96.0938-81.25 87.9883-81.25L29.0039-81.25Q20.8984-81.25 16.6748-77.0508Q12.4512-72.8516 12.4512-64.8438L12.4512-5.51758Q12.4512 2.49023 16.6748 6.68945Q20.8984 10.8887 29.0039 10.8887ZM46.7285-57.2266Q50.8789-57.2266 53.9062-55.127Q56.9336-53.0273 58.6914-49.9023Q60.4004-53.0273 63.4277-55.127Q66.4551-57.2266 70.6055-57.2266Q74.707-57.2266 77.9785-55.2734Q81.25-53.3203 83.1543-49.8779Q85.0586-46.4355 85.0586-41.8945Q85.0586-37.5977 83.3984-33.667Q81.7383-29.7363 79.0039-26.2207Q76.2695-22.7051 73.0957-19.7754Q69.9219-16.8457 66.8701-14.5508Q63.8184-12.2559 61.4258-10.7422Q60.791-10.4004 60.0586-9.98535Q59.3262-9.57031 58.7402-9.57031Q58.1543-9.57031 57.373-9.98535Q56.5918-10.4004 55.9082-10.7422Q53.5156-12.2559 50.4395-14.5264Q47.3633-16.7969 44.165-19.751Q40.9668-22.7051 38.2568-26.1963Q35.5469-29.6875 33.9111-33.6426Q32.2754-37.5977 32.2754-41.8945Q32.2754-46.4355 34.1553-49.8779Q36.0352-53.3203 39.3066-55.2734Q42.5781-57.2266 46.7285-57.2266Z"/>
  </g>
  <g id="Medium-M" transform="matrix(1 0 0 1 1688.52 1126)">
   <path d="M28.4668 10.4004L87.5977 10.4004Q95.5078 10.4004 99.5605 6.37207Q103.613 2.34375 103.613-5.46875L103.613-64.8926Q103.613-72.7539 99.5605-76.7578Q95.5078-80.7617 87.5977-80.7617L28.4668-80.7617Q20.5566-80.7617 16.5039-76.7578Q12.4512-72.7539 12.4512-64.8926L12.4512-5.46875Q12.4512 2.34375 16.5039 6.37207Q20.5566 10.4004 28.4668 10.4004ZM46.0938-57.373Q50.1953-57.373 53.2471-55.2734Q56.2988-53.1738 58.1055-49.8535Q59.9121-53.1738 62.9639-55.2734Q66.0156-57.373 70.1172-57.373Q74.3164-57.373 77.6123-55.3955Q80.9082-53.418 82.7881-49.9512Q84.668-46.4844 84.668-41.9922Q84.668-37.8418 83.0566-33.9844Q81.4453-30.127 78.8086-26.6113Q76.1719-23.0957 72.998-20.0928Q69.8242-17.0898 66.626-14.6729Q63.4277-12.2559 60.7422-10.498Q60.1562-10.1562 59.4482-9.74121Q58.7402-9.32617 58.2031-9.32617Q57.666-9.32617 56.8848-9.74121Q56.1035-10.1562 55.4199-10.498Q52.7832-12.2559 49.5605-14.6484Q46.3379-17.041 43.1641-20.0684Q39.9902-23.0957 37.3535-26.5869Q34.7168-30.0781 33.1299-33.96Q31.543-37.8418 31.543-41.9922Q31.543-46.4844 33.4229-49.9512Q35.3027-53.418 38.5986-55.3955Q41.8945-57.373 46.0938-57.373Z"/>
  </g>
  <g id="Regular-M" transform="matrix(1 0 0 1 1392.45 1126)">
   <path d="M27.7832 9.76562L87.0117 9.76562Q94.6777 9.76562 98.5107 5.98145Q102.344 2.19727 102.344-5.37109L102.344-64.9902Q102.344-72.5586 98.5107-76.3428Q94.6777-80.127 87.0117-80.127L27.7832-80.127Q20.1172-80.127 16.2842-76.3428Q12.4512-72.5586 12.4512-64.9902L12.4512-5.37109Q12.4512 2.19727 16.2842 5.98145Q20.1172 9.76562 27.7832 9.76562ZM45.3125-57.5195Q49.3652-57.5195 52.4414-55.4199Q55.5176-53.3203 57.4219-49.8535Q59.2773-53.3203 62.3779-55.4199Q65.4785-57.5195 69.4824-57.5195Q73.7793-57.5195 77.0996-55.542Q80.4199-53.5645 82.2998-50.0977Q84.1797-46.6309 84.1797-42.1387Q84.1797-38.1836 82.666-34.4238Q81.1523-30.6641 78.5889-27.1484Q76.0254-23.6328 72.8516-20.5322Q69.6777-17.4316 66.333-14.8193Q62.9883-12.207 59.9121-10.2051Q59.3262-9.81445 58.667-9.42383Q58.0078-9.0332 57.5195-9.0332Q57.0312-9.0332 56.2988-9.42383Q55.5664-9.81445 54.8828-10.2051Q51.8066-12.207 48.4375-14.7949Q45.0684-17.3828 41.8945-20.4834Q38.7207-23.584 36.1572-27.0996Q33.5938-30.6152 32.1045-34.3994Q30.6152-38.1836 30.6152-42.1387Q30.6152-46.6309 32.4951-50.0977Q34.375-53.5645 37.6953-55.542Q41.0156-57.5195 45.3125-57.5195Z"/>
  </g>
  <g id="Light-M" transform="matrix(1 0 0 1 1096.47 1126)">
   <path d="M26.8555 9.0332L86.4746 9.0332Q93.6035 9.0332 97.2412 5.44434Q100.879 1.85547 100.879-5.22461L100.879-65.0879Q100.879-72.168 97.2412-75.7812Q93.6035-79.3945 86.4746-79.3945L26.8555-79.3945Q19.6777-79.3945 16.0645-75.8057Q12.4512-72.2168 12.4512-65.0879L12.4512-5.22461Q12.4512 1.85547 16.0645 5.44434Q19.6777 9.0332 26.8555 9.0332ZM44.7266-57.4707Q48.7305-57.4707 51.8066-55.3467Q54.8828-53.2227 56.6895-49.9512Q58.4961-53.2227 61.5967-55.3467Q64.6973-57.4707 68.6523-57.4707Q72.8516-57.4707 76.0986-55.5176Q79.3457-53.5645 81.2256-50.1953Q83.1055-46.8262 83.1055-42.4805Q83.1055-38.3789 81.4941-34.5703Q79.8828-30.7617 77.2461-27.2461Q74.6094-23.7305 71.4111-20.6543Q68.2129-17.5781 64.9414-15.0635Q61.6699-12.5488 58.8379-10.5957Q58.3496-10.2539 57.7637-9.93652Q57.1777-9.61914 56.7383-9.61914Q56.3477-9.61914 55.7129-9.93652Q55.0781-10.2539 54.4922-10.5957Q51.6602-12.4512 48.3643-14.9658Q45.0684-17.4805 41.8701-20.5322Q38.6719-23.584 36.0352-27.124Q33.3984-30.6641 31.8359-34.5215Q30.2734-38.3789 30.2734-42.4805Q30.2734-46.8262 32.1289-50.1953Q33.9844-53.5645 37.2559-55.5176Q40.5273-57.4707 44.7266-57.4707Z"/>
  </g>
  <g id="Thin-M" transform="matrix(1 0 0 1 800.758 1126)">
   <path d="M25.5859 8.05664L85.6934 8.05664Q92.2363 8.05664 95.5566 4.71191Q98.877 1.36719 98.877-5.07812L98.877-65.2344Q98.877-71.6309 95.5566-75Q92.2363-78.3691 85.6934-78.3691L25.5859-78.3691Q19.1406-78.3691 15.7959-75.0488Q12.4512-71.7285 12.4512-65.2344L12.4512-5.07812Q12.4512 1.41602 15.7959 4.73633Q19.1406 8.05664 25.5859 8.05664ZM43.8965-57.2754Q47.8516-57.2754 50.9277-55.1514Q54.0039-53.0273 55.7129-49.9512Q57.373-53.0273 60.498-55.1514Q63.623-57.2754 67.4805-57.2754Q71.582-57.2754 74.7559-55.4199Q77.9297-53.5645 79.7607-50.2686Q81.5918-46.9727 81.5918-42.8711Q81.5918-38.623 79.9072-34.7168Q78.2227-30.8105 75.4883-27.2949Q72.7539-23.7793 69.4824-20.7764Q66.2109-17.7734 63.0371-15.332Q59.8633-12.8906 57.373-11.084Q56.9824-10.791 56.5186-10.5713Q56.0547-10.3516 55.7129-10.3516Q55.3711-10.3516 54.9072-10.5713Q54.4434-10.791 54.0039-11.084Q51.416-12.6953 48.1934-15.0879Q44.9707-17.4805 41.748-20.5322Q38.5254-23.584 35.791-27.1484Q33.0566-30.7129 31.4209-34.668Q29.7852-38.623 29.7852-42.8711Q29.7852-46.9727 31.6162-50.2686Q33.4473-53.5645 36.6455-55.4199Q39.8438-57.2754 43.8965-57.2754Z"/>
  </g>
  <g id="Ultralight-M" transform="matrix(1 0 0 1 504.535 1126)">
   <path d="M24.9512 7.56836L85.3516 7.56836Q91.5039 7.56836 94.7021 4.3457Q97.9004 1.12305 97.9004-4.98047L97.9004-65.332Q97.9004-71.3867 94.7021-74.6338Q91.5039-77.8809 85.3516-77.8809L24.9512-77.8809Q18.8477-77.8809 15.6494-74.6826Q12.4512-71.4844 12.4512-65.332L12.4512-4.98047Q12.4512 1.2207 15.6494 4.39453Q18.8477 7.56836 24.9512 7.56836ZM43.457-57.2754Q47.3633-57.2754 50.4639-55.127Q53.5645-52.9785 55.2246-50.0488Q56.8359-52.9785 59.9609-55.127Q63.0859-57.2754 66.8945-57.2754Q70.9473-57.2754 74.0723-55.4199Q77.1973-53.5645 79.0283-50.3418Q80.8594-47.1191 80.8594-43.1152Q80.8594-38.7695 79.1016-34.8389Q77.3438-30.9082 74.5605-27.3926Q71.7773-23.877 68.4814-20.874Q65.1855-17.8711 62.085-15.5029Q58.9844-13.1348 56.6406-11.3281Q56.2988-11.084 55.8838-10.9131Q55.4688-10.7422 55.1758-10.7422Q54.9316-10.7422 54.5166-10.9375Q54.1016-11.1328 53.7109-11.3281Q51.2695-12.8906 48.1201-15.2344Q44.9707-17.5781 41.7236-20.5811Q38.4766-23.584 35.6934-27.1729Q32.9102-30.7617 31.2256-34.7656Q29.541-38.7695 29.541-43.1152Q29.541-47.1191 31.3477-50.3418Q33.1543-53.5645 36.3281-55.4199Q39.502-57.2754 43.457-57.2754Z"/>
  </g>
  <g id="Black-S" transform="matrix(1 0 0 1 2885.5 696)">
   <path d="M25 2.92969L70.8008 2.92969Q77.9785 2.92969 82.0068-1.09863Q86.0352-5.12695 86.0352-12.3047L86.0352-58.1055Q86.0352-65.2832 82.0068-69.3115Q77.9785-73.3398 70.8008-73.3398L25-73.3398Q17.8223-73.3398 13.7939-69.3115Q9.76562-65.2832 9.76562-58.1055L9.76562-12.3047Q9.76562-5.12695 13.7939-1.09863Q17.8223 2.92969 25 2.92969ZM39.3555-51.8555Q42.7734-51.8555 45.0439-50.2197Q47.3145-48.584 48.3887-46.7285Q49.5117-48.584 51.7578-50.2197Q54.0039-51.8555 57.4219-51.8555Q61.8652-51.8555 65.0879-48.6084Q68.3105-45.3613 68.3105-39.8926Q68.3105-35.9375 66.6992-32.5195Q65.0879-29.1016 62.6709-26.3672Q60.2539-23.6328 57.7637-21.6309Q55.2734-19.6289 53.3936-18.457Q51.5137-17.2852 51.0254-17.0898Q50.4395-16.8457 49.7314-16.5039Q49.0234-16.1621 48.3887-16.1621Q47.7539-16.1621 47.0215-16.5039Q46.2891-16.8457 45.752-17.0898Q45.3125-17.334 43.4326-18.5059Q41.5527-19.6777 39.0381-21.6553Q36.5234-23.6328 34.1064-26.3916Q31.6895-29.1504 30.0781-32.5439Q28.4668-35.9375 28.4668-39.8926Q28.4668-45.3613 31.6895-48.6084Q34.9121-51.8555 39.3555-51.8555Z"/>
  </g>
  <g id="Heavy-S" transform="matrix(1 0 0 1 2589.4 696)">
   <path d="M24.3652 2.34375L70.2637 2.34375Q77.1973 2.34375 81.0059-1.46484Q84.8145-5.27344 84.8145-12.207L84.8145-58.2031Q84.8145-65.1367 81.0059-68.9453Q77.1973-72.7539 70.2637-72.7539L24.3652-72.7539Q17.3828-72.7539 13.5742-68.9453Q9.76562-65.1367 9.76562-58.2031L9.76562-12.207Q9.76562-5.27344 13.5742-1.46484Q17.3828 2.34375 24.3652 2.34375ZM38.5254-52.0508Q41.8945-52.0508 44.1895-50.415Q46.4844-48.7793 47.6562-46.7285Q48.877-48.7793 51.1719-50.415Q53.4668-52.0508 56.7871-52.0508Q61.4258-52.0508 64.6484-48.7549Q67.8711-45.459 67.8711-40.0391Q67.8711-36.2793 66.3818-32.9834Q64.8926-29.6875 62.5732-26.9531Q60.2539-24.2188 57.7637-22.1191Q55.2734-20.0195 53.1982-18.6279Q51.123-17.2363 50.1953-16.6992Q49.6094-16.4551 48.9258-16.1133Q48.2422-15.7715 47.7051-15.7715Q47.1191-15.7715 46.4111-16.1133Q45.7031-16.4551 45.1172-16.6992Q44.1895-17.2852 42.1387-18.6523Q40.0879-20.0195 37.5732-22.1191Q35.0586-24.2188 32.7637-26.9775Q30.4688-29.7363 28.9551-33.0078Q27.4414-36.2793 27.4414-40.0391Q27.4414-45.459 30.6641-48.7549Q33.8867-52.0508 38.5254-52.0508Z"/>
  </g>
  <g id="Bold-S" transform="matrix(1 0 0 1 2293.35 696)">
   <path d="M23.6328 1.66016L69.6289 1.66016Q76.3672 1.66016 79.9316-1.9043Q83.4961-5.46875 83.4961-12.1094L83.4961-58.3008Q83.4961-64.9902 79.9316-68.5303Q76.3672-72.0703 69.6289-72.0703L23.6328-72.0703Q16.9434-72.0703 13.3545-68.5303Q9.76562-64.9902 9.76562-58.3008L9.76562-12.1094Q9.76562-5.46875 13.3545-1.9043Q16.9434 1.66016 23.6328 1.66016ZM37.5977-52.2949Q40.918-52.2949 43.2617-50.6592Q45.6055-49.0234 46.875-46.6797Q48.1934-49.0234 50.5371-50.6592Q52.8809-52.2949 56.1523-52.2949Q60.9375-52.2949 64.1846-48.9502Q67.4316-45.6055 67.4316-40.1855Q67.4316-36.7188 66.04-33.5449Q64.6484-30.3711 62.4756-27.6367Q60.3027-24.9023 57.8125-22.6562Q55.3223-20.4102 53.0518-18.7988Q50.7812-17.1875 49.2676-16.2598Q48.7305-15.9668 48.0957-15.625Q47.4609-15.2832 46.9238-15.2832Q46.4355-15.2832 45.752-15.625Q45.0684-15.9668 44.4824-16.2598Q43.0176-17.1875 40.7471-18.8232Q38.4766-20.459 35.9863-22.6562Q33.4961-24.8535 31.2988-27.6123Q29.1016-30.3711 27.71-33.5449Q26.3184-36.7188 26.3184-40.1855Q26.3184-45.6055 29.5654-48.9502Q32.8125-52.2949 37.5977-52.2949Z"/>
  </g>
  <g id="Semibold-S" transform="matrix(1 0 0 1 1997.12 696)">
   <path d="M23.0957 1.2207L69.1895 1.2207Q75.7324 1.2207 79.126-2.17285Q82.5195-5.56641 82.5195-12.0605L82.5195-58.3496Q82.5195-64.8438 79.126-68.2373Q75.7324-71.6309 69.1895-71.6309L23.0957-71.6309Q16.6016-71.6309 13.1836-68.2373Q9.76562-64.8438 9.76562-58.3496L9.76562-12.0605Q9.76562-5.56641 13.1836-2.17285Q16.6016 1.2207 23.0957 1.2207ZM36.9141-52.4414Q40.2344-52.4414 42.6025-50.8057Q44.9707-49.1699 46.3379-46.6797Q47.7051-49.1699 50.0732-50.8057Q52.4414-52.4414 55.7129-52.4414Q60.5469-52.4414 63.8184-49.0479Q67.0898-45.6543 67.0898-40.2832Q67.0898-36.9629 65.7959-33.8867Q64.502-30.8105 62.4023-28.0762Q60.3027-25.3418 57.8125-23.0225Q55.3223-20.7031 52.9053-18.9209Q50.4883-17.1387 48.6328-15.9668Q48.0957-15.625 47.4854-15.2832Q46.875-14.9414 46.3867-14.9414Q45.9473-14.9414 45.2637-15.2832Q44.5801-15.625 44.043-15.9668Q42.1387-17.1387 39.7217-18.9209Q37.3047-20.7031 34.8389-22.998Q32.373-25.293 30.249-28.0273Q28.125-30.7617 26.8311-33.8623Q25.5371-36.9629 25.5371-40.2832Q25.5371-45.6543 28.7842-49.0479Q32.0312-52.4414 36.9141-52.4414Z"/>
  </g>
  <g id="Medium-S" transform="matrix(1 0 0 1 1700.75 696)">
   <path d="M22.7051 0.830078L68.8965 0.830078Q75.293 0.830078 78.5645-2.41699Q81.8359-5.66406 81.8359-11.9629L81.8359-58.4473Q81.8359-64.7461 78.5645-67.9932Q75.293-71.2402 68.8965-71.2402L22.7051-71.2402Q16.3574-71.2402 13.0615-67.9932Q9.76562-64.7461 9.76562-58.4473L9.76562-11.9629Q9.76562-5.66406 13.0615-2.41699Q16.3574 0.830078 22.7051 0.830078ZM36.4258-52.5879Q39.6973-52.5879 42.0898-50.9277Q44.4824-49.2676 45.8984-46.6309Q47.3633-49.2676 49.7559-50.9277Q52.1484-52.5879 55.3711-52.5879Q60.3027-52.5879 63.5986-49.1455Q66.8945-45.7031 66.8945-40.3809Q66.8945-37.1582 65.625-34.1553Q64.3555-31.1523 62.3291-28.418Q60.3027-25.6836 57.8369-23.291Q55.3711-20.8984 52.832-18.9941Q50.293-17.0898 48.1445-15.7227Q47.6074-15.3809 47.0215-15.0391Q46.4355-14.6973 45.9961-14.6973Q45.5566-14.6973 44.8975-15.0391Q44.2383-15.3809 43.7012-15.7227Q41.5039-17.0898 38.9893-18.9941Q36.4746-20.8984 34.0088-23.2666Q31.543-25.6348 29.4678-28.3691Q27.3926-31.1035 26.1719-34.1309Q24.9512-37.1582 24.9512-40.3809Q24.9512-45.7031 28.2227-49.1455Q31.4941-52.5879 36.4258-52.5879Z"/>
  </g>
  <g id="Regular-S" transform="matrix(1 0 0 1 1404.51 696)">
   <path d="M22.2168 0.390625L68.457 0.390625Q74.707 0.390625 77.8076-2.68555Q80.9082-5.76172 80.9082-11.9141L80.9082-58.4961Q80.9082-64.6484 77.8076-67.7246Q74.707-70.8008 68.457-70.8008L22.2168-70.8008Q16.0156-70.8008 12.8906-67.7246Q9.76562-64.6484 9.76562-58.4961L9.76562-11.9141Q9.76562-5.76172 12.8906-2.68555Q16.0156 0.390625 22.2168 0.390625ZM35.791-52.7344Q39.0137-52.7344 41.4307-51.0742Q43.8477-49.4141 45.3613-46.6309Q46.875-49.4141 49.292-51.0742Q51.709-52.7344 54.8828-52.7344Q59.9609-52.7344 63.2568-49.2676Q66.5527-45.8008 66.5527-40.4785Q66.5527-37.4512 65.3809-34.5215Q64.209-31.5918 62.2559-28.8574Q60.3027-26.123 57.8369-23.6572Q55.3711-21.1914 52.6855-19.1162Q50-17.041 47.5098-15.4297Q46.9727-15.0879 46.4111-14.7461Q45.8496-14.4043 45.459-14.4043Q45.0684-14.4043 44.4336-14.7461Q43.7988-15.0879 43.2129-15.4297Q40.6738-17.041 38.0127-19.1162Q35.3516-21.1914 32.8857-23.6328Q30.4199-26.0742 28.4424-28.8086Q26.4648-31.543 25.3174-34.4971Q24.1699-37.4512 24.1699-40.4785Q24.1699-45.8008 27.4414-49.2676Q30.7129-52.7344 35.791-52.7344Z"/>
  </g>
  <g id="Light-S" transform="matrix(1 0 0 1 1108.46 696)">
   <path d="M21.3867-0.244141L67.9688-0.244141Q73.7793-0.244141 76.6846-3.17383Q79.5898-6.10352 79.5898-11.8164L79.5898-58.5938Q79.5898-64.3066 76.6846-67.2119Q73.7793-70.1172 67.9688-70.1172L21.3867-70.1172Q15.625-70.1172 12.6953-67.2119Q9.76562-64.3066 9.76562-58.5938L9.76562-11.8164Q9.76562-6.05469 12.6953-3.14941Q15.625-0.244141 21.3867-0.244141ZM35.2539-52.6855Q38.3789-52.6855 40.7959-51.001Q43.2129-49.3164 44.6777-46.7285Q46.1426-49.3164 48.5596-51.001Q50.9766-52.6855 54.1016-52.6855Q59.082-52.6855 62.3047-49.3164Q65.5273-45.9473 65.5273-40.7715Q65.5273-37.6465 64.3066-34.668Q63.0859-31.6895 61.0352-28.9551Q58.9844-26.2207 56.4941-23.7793Q54.0039-21.3379 51.3916-19.3359Q48.7793-17.334 46.5332-15.7715Q46.0449-15.4785 45.5566-15.21Q45.0684-14.9414 44.7266-14.9414Q44.3848-14.9414 43.8721-15.21Q43.3594-15.4785 42.8223-15.7715Q40.4785-17.2852 37.8906-19.2871Q35.3027-21.2891 32.8125-23.7061Q30.3223-26.123 28.2715-28.8818Q26.2207-31.6406 25.0244-34.6436Q23.8281-37.6465 23.8281-40.7715Q23.8281-45.9473 27.0508-49.3164Q30.2734-52.6855 35.2539-52.6855Z"/>
  </g>
  <g id="Thin-S" transform="matrix(1 0 0 1 812.623 696)">
   <path d="M20.3125-1.12305L67.2852-1.12305Q72.5098-1.12305 75.1709-3.80859Q77.832-6.49414 77.832-11.6211L77.832-58.6914Q77.832-63.8184 75.1709-66.5283Q72.5098-69.2383 67.2852-69.2383L20.3125-69.2383Q15.0879-69.2383 12.4268-66.5771Q9.76562-63.916 9.76562-58.6914L9.76562-11.6211Q9.76562-6.44531 12.4268-3.78418Q15.0879-1.12305 20.3125-1.12305ZM34.5703-52.5391Q37.6465-52.5391 40.0635-50.8545Q42.4805-49.1699 43.8477-46.7285Q45.2148-49.1699 47.6318-50.8545Q50.0488-52.5391 53.0762-52.5391Q57.9102-52.5391 61.084-49.292Q64.2578-46.0449 64.2578-41.1133Q64.2578-37.793 62.9395-34.7656Q61.6211-31.7383 59.4971-28.9795Q57.373-26.2207 54.834-23.8525Q52.2949-21.4844 49.7803-19.5557Q47.2656-17.627 45.2637-16.1621Q44.9219-15.9668 44.5312-15.7715Q44.1406-15.5762 43.8477-15.5762Q43.6035-15.5762 43.1885-15.7715Q42.7734-15.9668 42.4316-16.1621Q40.332-17.5293 37.8174-19.4092Q35.3027-21.2891 32.7637-23.6816Q30.2246-26.0742 28.125-28.8574Q26.0254-31.6406 24.7314-34.7168Q23.4375-37.793 23.4375-41.1133Q23.4375-46.0449 26.5869-49.292Q29.7363-52.5391 34.5703-52.5391Z"/>
  </g>
  <g id="Ultralight-S" transform="matrix(1 0 0 1 516.352 696)">
   <path d="M19.7754-1.5625L66.9434-1.5625Q71.875-1.5625 74.4141-4.15039Q76.9531-6.73828 76.9531-11.5723L76.9531-58.7891Q76.9531-63.623 74.4141-66.1865Q71.875-68.75 66.9434-68.75L19.7754-68.75Q14.8438-68.75 12.3047-66.2109Q9.76562-63.6719 9.76562-58.7891L9.76562-11.5723Q9.76562-6.64062 12.3047-4.10156Q14.8438-1.5625 19.7754-1.5625ZM34.1797-52.4902Q37.207-52.4902 39.624-50.8057Q42.041-49.1211 43.4082-46.8262Q44.6777-49.1211 47.1191-50.8057Q49.5605-52.4902 52.5391-52.4902Q57.3242-52.4902 60.4248-49.3164Q63.5254-46.1426 63.5254-41.3086Q63.5254-37.9395 62.1826-34.8877Q60.8398-31.8359 58.6426-29.0771Q56.4453-26.3184 53.9062-23.9746Q51.3672-21.6309 48.9014-19.7266Q46.4355-17.8223 44.5801-16.4551Q44.2871-16.2109 43.9453-16.0889Q43.6035-15.9668 43.3594-15.9668Q43.1152-15.9668 42.7979-16.1133Q42.4805-16.2598 42.1387-16.4551Q40.1855-17.6758 37.7197-19.5312Q35.2539-21.3867 32.6904-23.7549Q30.127-26.123 27.9785-28.9307Q25.8301-31.7383 24.5117-34.8389Q23.1934-37.9395 23.1934-41.3086Q23.1934-46.1426 26.2939-49.3164Q29.3945-52.4902 34.1797-52.4902Z"/>
  </g>
 </g>
</svg>
